# xmcd
#
# Track frame offsets:
#	150
#	15181
#	34698
#	49443
#	66128
#	87876
#	108706
#	128571
#	146233
#	162246
#	178573
#
# Disc length: 2627 seconds
#
# Revision: 3
# Processed by: cddbd v1.4PL0 Copyright (c) Steve Scherf et al.
# Submitted via: dBpowerAMP V4.0
#
DISCID=900a410b
DTITLE=Various Artist - Country Hits
DYEAR=1900
DGENRE=Country
TTITLE0=single white female Chely Wright
TTITLE1=I'll Still Love You More D. Warren
TTITLE2=Stranger In My Mirror S. Ewing
TTITLE3=That Don't Impress me Much S. Twain
TTITLE4=Two Teardrops B. Anderson
TTITLE5=Whatever You Say
TTITLE6=I Don't Want To Miss A Thing D. Warren
TTITLE7=Wish You Were Here S. Ewing
TTITLE8=With  You M. Hendrix
TTITLE9=Write This Down D. Hunt
TTITLE10=You Won't Ever Be Loneyl A. Griggs
EXTD=
EXTT0=
EXTT1=
EXTT2=
EXTT3=
EXTT4=
EXTT5=
EXTT6=
EXTT7=
EXTT8=
EXTT9=
EXTT10=
PLAYORDER=
